<?xml version="1.0" encoding="utf-8"?>
<!-- Generator: Adobe Illustrator 21.1.0, SVG Export Plug-In . SVG Version: 6.00 Build 0)  -->
<svg version="1.1" id="Layer_1" xmlns="http://www.w3.org/2000/svg" xmlns:xlink="http://www.w3.org/1999/xlink" x="0px" y="0px"
	 viewBox="0 0 193.1 116.5" style="enable-background:new 0 0 193.1 116.5;" xml:space="preserve">
<style type="text/css">
	.st0{fill:#FFFFFF;}
</style>
<g>
	<path class="st0" d="M0,0v93.9h193.1V0H0z M191.1,91.9H2V2h189.1V91.9z"/>
	<polygon class="st0" points="32.9,18.1 32.9,64 44.6,64 44.6,74.5 21.8,74.5 21.8,18.1 	"/>
	<path class="st0" d="M87.3,46.3c0,21.2-9.9,29.1-19.8,29.1c-9.9,0-19.8-7.9-19.8-29.1c0-21.2,9.9-29.1,19.8-29.1
		C77.4,17.2,87.3,25.2,87.3,46.3z M67.5,65.1c7.4,0,7.9-14.3,7.9-18.8c0-5-0.5-18.8-7.9-18.8c-7.4,0-7.9,13.8-7.9,18.8
		C59.6,50.8,60.1,65.1,67.5,65.1z"/>
	<path class="st0" d="M129.4,43.1v4.4c0,12-2.9,27.9-18.1,27.9S91.2,59.1,91.2,46.6c0-13,4.2-29.4,20.1-29.4
		c8.6,0,14.2,5.4,16.6,13.4L117,34.8c-0.5-2.8-1.4-7.3-5.7-7.3c-7.6-0.4-8.3,13.5-8.3,18.8c0,5.8,0.4,18.8,8.6,18.8
		c5.7,0,6.6-7.6,6.6-11.5h-7.1V43.1H129.4z"/>
	<path class="st0" d="M172.9,46.3c0,21.2-9.9,29.1-19.8,29.1c-9.9,0-19.8-7.9-19.8-29.1c0-21.2,9.9-29.1,19.8-29.1
		C163,17.2,172.9,25.2,172.9,46.3z M153.1,65.1c7.4,0,7.9-14.3,7.9-18.8c0-5-0.5-18.8-7.9-18.8c-7.4,0-7.9,13.8-7.9,18.8
		C145.1,50.8,145.7,65.1,153.1,65.1z"/>
	<polygon class="st0" points="16,115.9 14.6,115.9 14.6,104.6 11.5,104.6 11.5,103.3 19,103.3 19,104.6 16,104.6 	"/>
	<polygon class="st0" points="33.4,108.4 33.4,103.3 34.8,103.3 34.8,115.9 33.4,115.9 33.4,109.7 27,109.7 27,115.9 25.6,115.9 
		25.6,103.3 27,103.3 27,108.4 	"/>
	<polygon class="st0" points="42.5,103.3 49,103.3 49,104.6 43.9,104.6 43.9,108.3 48.9,108.3 48.9,109.7 43.9,109.7 43.9,114.6 
		49,114.6 49,115.9 42.5,115.9 	"/>
	<path class="st0" d="M76.2,106.1c-1-1-2.4-1.7-3.9-1.7c-2.8,0-5.1,2.4-5.1,5.2s2.3,5.2,5.1,5.2c1.4,0,2.8-0.7,3.8-1.7v1.7
		c-1.1,0.8-2.4,1.2-3.8,1.2c-3.6,0-6.6-2.9-6.6-6.5c0-3.6,3-6.6,6.6-6.6c1.4,0,2.6,0.4,3.8,1.2V106.1z"/>
	<path class="st0" d="M96.1,109.6c0,3.6-3,6.5-6.6,6.5c-3.6,0-6.6-2.9-6.6-6.5c0-3.6,3-6.5,6.6-6.5C93.2,103.1,96.1,106,96.1,109.6z
		 M84.4,109.6c0,2.8,2.3,5.2,5.2,5.2s5.2-2.4,5.2-5.2c0-2.9-2.3-5.2-5.2-5.2C86.7,104.4,84.4,106.7,84.4,109.6z"/>
	<polygon class="st0" points="104.7,102.6 109.3,113.2 113.9,102.6 116.4,115.9 115,115.9 113.4,107.4 113.3,107.4 109.3,116.4 
		105.2,107.4 105.2,107.4 103.6,115.9 102.1,115.9 	"/>
	<path class="st0" d="M124.5,115.9h-1.4v-12.6h2.1c1.1,0,2.2,0,3.1,0.7c0.9,0.7,1.4,1.8,1.4,2.9c0,1-0.4,2.1-1.2,2.7
		c-0.9,0.7-1.9,0.8-3,0.8h-1V115.9z M124.5,109.1h0.9c1.6,0,2.9-0.5,2.9-2.3c0-2.1-1.7-2.2-3.3-2.2h-0.5V109.1z"/>
	<path class="st0" d="M137.1,112.3l-1.5,3.6H134l5.8-13.2l5.7,13.2h-1.6l-1.5-3.6H137.1z M139.8,106l-2.2,5.1h4.3L139.8,106z"/>
	<polygon class="st0" points="152,102.8 161.8,113.1 161.8,103.3 163.2,103.3 163.2,116.5 153.4,106.2 153.4,115.9 152,115.9 	"/>
	<polygon class="st0" points="169.7,103.3 171.3,103.3 174.5,108.9 177.8,103.3 179.4,103.3 175.3,110.5 175.3,115.9 173.8,115.9 
		173.8,110.5 	"/>
</g>
</svg>
